<svg xmlns="http://www.w3.org/2000/svg" viewBox="0 0 40 40">
  <rect x="1" y="1" width="38" height="38" rx="11" fill="#C2500A"/>
  <circle cx="20" cy="20" r="12.5" stroke="#FDFCF4" fill="none" stroke-width="1.4" stroke-opacity="0.35" stroke-dasharray="1.6 3.1"/>
  <path d="M20 9c3.4 3.9 6.4 7 6.4 11.4 0 3.9-2.9 6.9-6.4 6.9s-6.4-3-6.4-6.9c0-1.9 1-3.6 2.3-5.2.5 1.3 1.4 2 2.4 2.2-.6-2.9.4-6 1.7-8.4Z" fill="#F8C324"/>
  <path d="M20 27.3c-2 0-3.7-1.7-3.7-3.9 0-1.8 1.4-3.2 2.3-4.5.7 2.2 2.2 2.6 2.2 2.6 1.3.9 2.9 1.7 2.9 3.4-.1 1.6-1.6 2.4-3.7 2.4Z" fill="#FDFCF4" fill-opacity="0.85"/>
</svg>
